<svg xmlns="http://www.w3.org/2000/svg" width="100%" height="100%" viewBox="0 0 512 512" role="img" aria-label="ARIAD GSM AR icon">
  <rect width="512" height="512" rx="112" fill="#2070FC"/>
  <g transform="translate(58 78) scale(0.39)">
    <path d="M92 790L362 202H505L790 790H610L552 660H338L281 790Z" fill="#FFFFFF"/>
    <path d="M414 368L365 520H498L447 368Z" fill="#2070FC"/>
    <path d="M508 202H790C887 202 933 274 896 363L854 463C832 516 790 544 728 548L897 790H699L548 562H473L531 428H712C742 428 765 414 776 388L790 354C805 319 785 292 744 292H467Z" fill="#FFFFFF"/>
    <path d="M506 202L366 520" stroke="#2070FC" stroke-width="34" stroke-linecap="round"/>
    <path d="M338 660H552" stroke="#2070FC" stroke-width="38" stroke-linecap="round"/>
    <path d="M548 562L699 790" stroke="#2070FC" stroke-width="32" stroke-linecap="round"/>
  </g>
</svg>
