<svg xmlns="http://www.w3.org/2000/svg" width="100%" height="100%" viewBox="0 0 512 512" role="img" aria-label="ARIAD GSM AR icon">
  <defs>
    <linearGradient id="bg" x1="0" y1="0" x2="1" y2="1">
      <stop offset="0" stop-color="#183A7A"/>
      <stop offset="0.48" stop-color="#0B1C42"/>
      <stop offset="1" stop-color="#07152F"/>
    </linearGradient>
    <radialGradient id="glow" cx="34%" cy="24%" r="60%">
      <stop offset="0" stop-color="#2070FC" stop-opacity="0.24"/>
      <stop offset="0.58" stop-color="#2070FC" stop-opacity="0.08"/>
      <stop offset="1" stop-color="#2070FC" stop-opacity="0"/>
    </radialGradient>
  </defs>
  <rect width="512" height="512" rx="112" fill="url(#bg)"/>
  <rect width="512" height="512" rx="112" fill="url(#glow)"/>
  <g transform="translate(58 78) scale(0.39)">
    <path d="M92 790L362 202H505L790 790H610L552 660H338L281 790Z" fill="#2070FC"/>
    <path d="M414 368L365 520H498L447 368Z" fill="#EEF4FF"/>
    <path d="M508 202H790C887 202 933 274 896 363L854 463C832 516 790 544 728 548L897 790H699L548 562H473L531 428H712C742 428 765 414 776 388L790 354C805 319 785 292 744 292H467Z" fill="#2070FC"/>
    <path d="M506 202L366 520" stroke="#EEF4FF" stroke-width="34" stroke-linecap="round" opacity="0.96"/>
    <path d="M338 660H552" stroke="#EEF4FF" stroke-width="38" stroke-linecap="round" opacity="0.92"/>
    <path d="M548 562L699 790" stroke="#EEF4FF" stroke-width="32" stroke-linecap="round" opacity="0.92"/>
  </g>
</svg>
