<svg xmlns="http://www.w3.org/2000/svg" viewBox="0 0 1200 630" role="img" aria-labelledby="title desc">
  <title id="title">ARIAD GSM social preview</title>
  <desc id="desc">Open Graph preview image for ARIAD GSM website sharing.</desc>
  <defs>
    <linearGradient id="bg" x1="0" y1="0" x2="1" y2="1">
      <stop offset="0" stop-color="#183A7A"/>
      <stop offset="0.48" stop-color="#0B1C42"/>
      <stop offset="1" stop-color="#050A15"/>
    </linearGradient>
    <radialGradient id="glow" cx="23%" cy="18%" r="74%">
      <stop offset="0" stop-color="#2070FC" stop-opacity="0.25"/>
      <stop offset="0.58" stop-color="#2070FC" stop-opacity="0.08"/>
      <stop offset="1" stop-color="#2070FC" stop-opacity="0"/>
    </radialGradient>
    <pattern id="grid" width="50" height="50" patternUnits="userSpaceOnUse">
      <path d="M50 0H0V50" fill="none" stroke="#2070FC" stroke-width="1" opacity="0.08"/>
    </pattern>
    <filter id="shadow" x="-10%" y="-20%" width="120%" height="140%">
      <feDropShadow dx="0" dy="12" stdDeviation="14" flood-color="#000814" flood-opacity="0.34"/>
    </filter>
  </defs>
  <rect width="1200" height="630" fill="url(#bg)"/>
  <rect width="1200" height="630" fill="url(#glow)"/>
  <rect width="1200" height="630" fill="url(#grid)"/>
  <path d="M720 0H1200V630H630L718 0Z" fill="#07152F" opacity="0.42"/>
  <g opacity="0.14" transform="translate(720 116) scale(0.42)">
    <path d="M92 790L362 202H505L790 790H610L552 660H338L281 790Z" fill="#FFFFFF"/>
    <path d="M414 368L365 520H498L447 368Z" fill="#07152F"/>
    <path d="M508 202H790C887 202 933 274 896 363L854 463C832 516 790 544 728 548L897 790H699L548 562H473L531 428H712C742 428 765 414 776 388L790 354C805 319 785 292 744 292H467Z" fill="#FFFFFF"/>
    <path d="M506 202L366 520" stroke="#07152F" stroke-width="30" stroke-linecap="round"/>
    <path d="M338 660H552" stroke="#07152F" stroke-width="34" stroke-linecap="round"/>
    <path d="M548 562L699 790" stroke="#07152F" stroke-width="28" stroke-linecap="round"/>
  </g>
  <g transform="translate(78 72) scale(0.44)" filter="url(#shadow)">
    <path d="M60 31H440C481 31 502 57 496 92L480 160C474 184 452 192 424 192H33C14 192 5 179 10 160L37 61C41 42 47 31 60 31Z" fill="#2070FC"/>
    <path d="M506 70L490 150" stroke="#2070FC" stroke-width="7" stroke-linecap="round" opacity="0.9"/>
    <path d="M528 72H754" stroke="#2070FC" stroke-width="5" stroke-linecap="round" opacity="0.9"/>
    <path d="M520 160H744" stroke="#2070FC" stroke-width="5" stroke-linecap="round" opacity="0.9"/>
    <text x="68" y="107" fill="#FFFFFF" font-family="Arial Black, Montserrat, Gotham, Helvetica Neue, Arial, sans-serif" font-size="108" font-weight="900" font-style="italic" dominant-baseline="central" letter-spacing="-2">ARIAD</text>
    <text x="512" y="107" fill="#FFFFFF" stroke="#2070FC" stroke-width="2.5" paint-order="stroke" font-family="Arial Black, Montserrat, Gotham, Helvetica Neue, Arial, sans-serif" font-size="108" font-weight="900" font-style="italic" dominant-baseline="central" letter-spacing="-2">GSM</text>
  </g>
  <text x="82" y="242" fill="#FFFFFF" font-family="Arial Black, Arial, Helvetica, sans-serif" font-size="60" font-weight="900">Xiaomi Reset + FRP</text>
  <text x="82" y="312" fill="#FFFFFF" font-family="Arial Black, Arial, Helvetica, sans-serif" font-size="60" font-weight="900">AriadGSM Cliente</text>
  <text x="84" y="374" fill="#DCE8FF" font-family="Arial, Helvetica, sans-serif" font-size="29" font-weight="800">App Windows | precio por país | pedido guiado</text>
  <g transform="translate(84 434)">
    <rect width="220" height="54" rx="27" fill="#2070FC"/>
    <text x="110" y="36" text-anchor="middle" fill="#FFFFFF" font-family="Arial, Helvetica, sans-serif" font-size="21" font-weight="900">Descarga oficial</text>
    <rect x="246" width="300" height="54" rx="27" fill="#FFFFFF" opacity="0.1"/>
    <text x="396" y="36" text-anchor="middle" fill="#DCE8FF" font-family="Arial, Helvetica, sans-serif" font-size="21" font-weight="900">Técnicos y revendedores</text>
  </g>
</svg>
